<svg width="32" height="32" viewBox="0 0 32 32" fill="none" xmlns="http://www.w3.org/2000/svg">
<path d="M14.7692 0H17.086L18.6063 0.182857L19.6923 0.365714L21.0679 0.670476L22.5158 1.1581L23.6742 1.64571L24.905 2.25524L25.8462 2.86476L26.8597 3.59619L28.0905 4.63238L28.8869 5.48571L29.5385 6.27809L30.19 7.25333L30.914 8.53333L31.4932 9.99619L31.8552 11.459L32 12.5562V14.5676L31.7828 16.0305L31.2036 17.859L30.6244 19.0781L29.7557 20.48L28.8145 21.6381L27.9457 22.5524L26.5701 24.8686L25.9186 25.9048L24.181 28.8305L23.819 28.7695L22.6606 28.16L21.6471 27.6114L21.3575 27.5505L16.0724 32L15.7828 31.8781L14.6244 30.9029L14.4796 30.8419V30.72H14.3348V30.5981H14.19V30.4762L13.9005 30.3543L11.1493 28.0381L11.0769 27.9162L10.7873 27.9771L9.70136 28.7695L9.19457 29.0743L8.90498 28.9524L8.0362 27.7333L7.16742 26.5752L6.22624 25.2952L5.35747 24.1371L4.77828 23.2838L3.9095 22.4305L3.33032 21.8819L2.46154 20.8457L1.59276 19.5657L1.01357 18.4686L0.434389 17.0057L0.144796 15.9086L0 15.2381V11.7638L0.361991 10.24L0.723982 9.20381L1.30317 7.98476L1.88235 7.00952L2.67873 5.91238L3.40271 5.12L3.9095 4.63238L4.56109 4.02286L5.35747 3.35238L6.15385 2.80381L7.38462 2.07238L8.68778 1.46286L10.0633 0.914286L11.5113 0.487619L12.7421 0.24381L14.0452 0.0609524L14.7692 0ZM15.276 1.70667L13.9729 1.82857L12.6697 2.01143L11.2217 2.37714L9.77376 2.86476L8.68778 3.35238L7.60181 3.9619L6.37104 4.81524L5.50226 5.48571L4.70588 6.33905L3.9819 7.19238L3.18552 8.41143L2.60633 9.63048L2.17195 10.9105L2.02715 11.52L1.88235 12.6171V14.3848L2.09955 15.9086L2.60633 17.4324L2.96833 18.2248L3.54751 19.2L4.1267 19.9924L4.63348 20.6019L5.93665 21.8819H6.08145L6.15385 22.0648L7.74661 23.1619L8.90498 23.7714L10.1357 24.32L11.6561 24.8076L12.5973 24.9905L13.1765 25.1124L14.914 25.2952H17.0136L18.8959 25.0514L20.9955 24.5029L22.1538 24.0762L23.7466 23.2838L24.6878 22.6743L25.4118 22.1257L26.6425 21.0895L27.6561 19.9314L28.0905 19.3219L28.8869 17.92L29.5385 16.1524L29.7557 15.0552L29.8281 14.4457V12.6171L29.6109 11.3371L29.3937 10.4838L29.0317 9.50857L28.5249 8.47238L28.0181 7.61905L27.3665 6.76571L26.6425 5.97333L25.4842 4.93714L24.6878 4.32762L23.457 3.59619L22.2986 3.04762L21.2851 2.62095L19.6199 2.13333L18.3167 1.88952L17.3756 1.76762L16.4344 1.70667H15.276Z" fill="#FEFAF6"/>
<path d="M15.3485 2.68201H16.2896L18.534 2.92582L20.0543 3.29153L21.5747 3.8401L22.8779 4.44963L24.0362 5.18105L24.9774 5.91248L25.3394 6.33915L25.4842 6.70486V7.43629L25.0498 8.10677L24.4706 8.53343L23.7467 8.77724H23.1675L22.4435 8.53343L21.7195 7.98486L20.9955 7.49724L20.0543 7.00963L18.9684 6.58296L18.0272 6.33915L16.7964 6.15629H14.9141L13.8281 6.2782L12.6697 6.58296L11.7286 6.94867L10.8598 7.37534L9.8462 8.04582L9.12222 8.65534L8.39824 9.50867L7.81905 10.423L7.38466 11.3982L7.09507 12.4953V14.5068L7.45706 15.7868L7.89145 16.7011L8.54303 17.6763L9.19462 18.3468L9.7738 18.8953L10.7874 19.5658L11.6562 20.0534L13.3937 20.663L14.4073 20.8458L15.2037 20.9068H16.362L17.6652 20.7849L18.7512 20.5411L20.0543 20.0534L21.0679 19.5049L21.7919 18.9563L22.3711 18.5296L23.1675 18.2249H23.7467L24.3982 18.4077L25.0498 18.8344L25.4842 19.5658V20.2363L24.9774 21.0896L24.2534 21.6991L23.0951 22.4306L22.0091 22.9791L20.8507 23.4668L19.6924 23.8325L17.81 24.1982L16.5068 24.3201H15.1313L13.9729 24.1982L12.5249 23.9544L11.0046 23.5277L9.7014 23.0401L8.61543 22.4915L7.38466 21.6991L6.0815 20.602L5.57471 20.0534L4.70593 18.9563L3.90955 17.5544L3.47516 16.4572L3.11317 14.9334L3.04077 14.5677V12.4344L3.33036 11.0934L3.69236 9.99629L4.34394 8.65534L4.99552 7.6801L5.7195 6.82677L6.51588 6.09534L6.87787 5.72963L7.67425 5.18105L8.39824 4.69344L9.7014 4.02296L11.2218 3.41344L12.5973 3.04772L14.0453 2.80391L15.3485 2.68201Z" fill="#FD7600"/>
<path d="M27.9457 22.3695V22.5524L26.5702 24.8686L25.9186 25.9047L24.181 28.8305L23.819 28.7695L22.6607 28.16L21.6471 27.6114L21.3575 27.5505L16.0724 32L15.7828 31.8781L14.6245 30.9028L14.4797 30.8419V30.72H14.3349V30.5981H14.1901V30.4762L13.9005 30.3543L11.1494 28.0381L11.077 27.9162L10.7874 27.9771L9.7014 28.7695L9.19461 29.0743L8.90502 28.9524L8.03624 27.7333L7.16746 26.5752L6.22628 25.2952L5.35751 24.1371L4.77832 23.2838V23.1009L5.21271 23.5276L6.22628 24.1981L6.80547 24.5638L7.96384 25.1733L9.91859 25.9657L11.8733 26.5143L13.6109 26.819L14.7693 26.9409H16.7964L19.0408 26.6971L20.5611 26.3924L22.1539 25.9047L23.3847 25.4171L24.8326 24.6857L25.7738 24.1371L26.7874 23.4057L27.6561 22.7352L27.9457 22.3695Z" fill="#FD7600"/>
<path d="M15.7103 9.63049L16.6515 9.69145L17.5927 9.93526L18.5339 10.3619L19.4026 11.0934L19.9818 11.9467L20.2714 12.8V13.8362L19.9818 14.6895L19.6198 15.2991L19.0406 15.9695L18.3167 16.8229L17.8823 17.3714H14.19L13.7556 17.2495L13.3212 16.64L12.6696 15.9695L12.0904 15.2991L11.8008 14.8114L11.5836 14.3238L11.5112 13.8972V12.9219L11.656 12.2514L12.2352 11.2153L12.8868 10.6057L13.466 10.24L14.4796 9.81335L15.0587 9.69145L15.7103 9.63049Z" fill="#FFBF4A"/>
<path d="M8.61539 17.859L8.97738 18.1638L9.77376 18.8952L10.7873 19.5657L11.6561 20.0533L13.3937 20.6628L14.4072 20.8457L15.2036 20.9066H16.362L17.6652 20.7847L18.7511 20.5409L20.0543 20.0533L21.0679 19.5047L21.7919 18.9562L22.371 18.5295L23.1674 18.2247H23.7466L24.3982 18.4076L25.0498 18.8342L25.4842 19.5657V20.2362L24.9774 21.0895L24.2534 21.699L23.095 22.4304L22.0091 22.979L20.8507 23.4666L19.6923 23.8323L17.81 24.1981L16.5068 24.32H15.1312L13.9729 24.1981L12.5249 23.9542L11.0045 23.5276L9.70136 23.04L8.61539 22.4914L7.38462 21.699L6.08145 20.6019L5.86426 20.3581L5.93666 20.2362L6.58824 20.7847L6.87783 21.0895L7.45702 21.5162L8.1086 22.0038L9.04978 22.5523L9.91856 22.979L10.4977 23.1619L10.6425 22.9181L11.2217 22.3085L11.9457 21.5771L12.5249 20.9676L12.8145 20.6019L12.3077 20.48L11.0769 19.9314L10.4253 19.5657V19.4438L10.0634 19.3219L9.33937 18.7733L8.61539 17.9809V17.859Z" fill="#F97517"/>
<path d="M18.2443 3.04761H18.7511L20.1266 3.41332L21.3574 3.83999L22.0814 4.14475L22.5882 4.32761L23.3845 4.75427L24.1085 5.24189L24.9773 5.91237L25.3393 6.33904L25.4841 6.70475V7.43618L25.0497 8.10666L24.4705 8.53332L23.7465 8.77713H23.1674L22.4434 8.53332L21.7194 7.98475L20.9954 7.49713L20.0542 7.00951L18.9683 6.58285L18.3167 6.39999V6.27808L17.4479 6.15618L16.0723 6.03427H15.7103L15.6379 5.79046L15.8551 5.60761L16.5067 4.93713L17.3031 4.14475L17.8823 3.53523L18.2443 3.04761Z" fill="#FFB43C"/>
<path d="M7.02273 15.0552L7.16752 15.1771V15.3599H7.31232L7.74671 16.4571L8.39829 17.4933L8.61549 17.7371L8.76028 18.0418L9.41187 18.7733L9.84626 19.078V19.1999L10.2082 19.3218L10.4254 19.4437V19.5657L10.7874 19.6876L11.5838 20.1142L12.8146 20.6018L12.6698 20.9066L12.0906 21.4552L11.3666 22.2476L10.7874 22.7961L10.4978 23.1618L10.1358 23.1009L9.26707 22.7352L8.32589 22.1866L7.52951 21.638L7.02273 21.2114L6.58834 20.9066L6.08155 20.419L5.50237 19.9923L5.21277 19.6266L4.99558 19.1999L4.34399 18.1637L4.41639 17.798L4.99558 17.2495L5.64716 16.579L5.93675 16.2742L6.44354 15.6647H6.58834L6.73313 15.3599L7.02273 15.0552Z" fill="#FFBF45"/>
<path d="M27.9458 22.3695V22.5524L26.5703 24.8686L25.9187 25.9047L24.1811 28.8305L23.8191 28.7695L22.6608 28.16L21.6472 27.6114L21.3576 27.4286L20.8508 27.3066L20.4888 27.1847L20.1992 26.9409L20.0544 26.5752L20.5612 26.5143V26.3924L22.154 25.9047L23.3848 25.4171L24.8327 24.6857L25.7739 24.1371L26.7875 23.4057L27.6563 22.7352L27.9458 22.3695Z" fill="#FF7E1B"/>
<path d="M4.70581 23.101L5.0678 23.4057L6.29857 24.259L7.23975 24.8076L8.25332 25.2952L9.91848 25.9657L11.8732 26.5143L13.6108 26.819L14.7692 26.941H16.7963L19.0407 26.6971L20.2714 26.4533L20.561 26.5143L19.2578 26.819L17.3755 27.0629L15.9999 27.1238L14.4072 27.0629L12.4524 26.819L12.38 27.0629H12.2352L12.1628 27.2457L11.5836 27.4895L11.1492 27.7943H10.8597L10.7149 28.0381L9.70129 28.7695L9.1945 29.0743L8.90491 28.9524L8.03613 27.7333L7.16735 26.5752L6.22617 25.2952L5.35739 24.1371L4.77821 23.2838L4.70581 23.101Z" fill="#FFB43C"/>
<path d="M15.7104 9.63049L16.6516 9.69145L17.5928 9.93526L18.5339 10.3619L19.4027 11.0934L19.9819 11.9467L20.2715 12.8V13.8362L19.9819 14.6895L19.6199 15.2991L19.0407 15.9695L18.3167 16.8229L17.8824 17.3714H14.19L13.7557 17.2495L13.6109 16.9448L13.9005 17.1886H15.9276L16.6516 16.5181L17.5928 15.4819L18.2443 14.7505L19.0407 13.9581L19.9819 12.9219V12.4953L19.7647 11.8857L19.3303 11.2762L18.6787 10.6667L17.9548 10.24L17.0136 9.93526L16.2896 9.81335H15.638L14.8416 9.8743L13.9729 10.1791H13.8281V10.301H13.4661L13.8281 10.0572L14.6968 9.7524L15.7104 9.63049Z" fill="#F97517"/>
<path d="M15.7104 12.2515L16.4344 12.3124L17.0136 12.6781L17.3032 13.0438L17.448 13.5315V13.8362L17.3756 13.8972H15.1312L15.3484 14.2629L15.4208 14.3238H16.2896L16.724 14.2019L17.2308 14.5067L16.9412 14.8115L16.362 15.0553L15.8552 15.1162L15.2036 14.9943L14.552 14.5677L14.2625 14.141V13.2877L14.552 12.8L14.914 12.4953L15.3484 12.3124L15.7104 12.2515Z" fill="#14094A"/>
<path d="M14.0454 18.7733H17.5205L17.8101 18.8343L17.5929 19.4438L17.1585 19.6876L16.8689 19.8095L16.7241 20.2362L16.4346 20.2971H15.3486L15.059 20.1752L14.9142 19.8095L14.2626 19.4438L14.0454 19.139V18.7733Z" fill="#FF7119"/>
<path d="M14.9865 10.5448H15.4933L15.6381 10.7277V11.1543L15.2761 11.2762L14.3349 11.52L13.7557 11.8858L13.3213 12.3734L13.1041 13.1048L13.0317 13.5924L12.9593 13.6534H12.4525L12.2354 13.4705V12.861L12.5249 12.0686L12.8869 11.52L13.2489 11.2153L13.9005 10.8496L14.6245 10.6058L14.9865 10.5448Z" fill="#14094B"/>
<path d="M14.2623 17.6761H17.2306L17.8098 17.7371L17.9546 17.859V18.3466L17.8098 18.5295H14.1175L13.9003 18.4076L13.8279 18.0419L14.0451 17.7371L14.2623 17.6761Z" fill="#F97517"/>
<path d="M15.5656 6.82666H16.0724L16.4344 7.00952L16.5792 7.43618V8.65523L16.362 9.02095L15.9276 9.2038L15.4208 9.0819L15.1312 8.71618L15.0588 8.16761V7.43618L15.3484 6.94856L15.5656 6.82666Z" fill="#FFBF45"/>
<path d="M8.90498 10.7886L9.41177 10.8495L10.9321 11.3981L11.0769 11.52V12.0076L10.9321 12.2514L10.6425 12.4343L9.99095 12.3733L8.90498 12.0076L8.54299 11.8248L8.39819 11.6419V11.2152L8.76018 10.8495L8.90498 10.7886Z" fill="#FF9F2D"/>
<path d="M11.5112 7.802H12.018L12.5972 8.35057L13.1763 9.14295V9.56962L13.0315 9.81343L12.6696 9.99629L12.1628 9.93533L11.7284 9.50867L11.0768 8.59438L11.0044 8.22867L11.3664 7.86295L11.5112 7.802Z" fill="#FEB45C"/>
<path d="M12.0907 16.5791H12.5974L13.0318 16.8839L13.1042 17.3105L12.8146 17.6762L12.0183 18.4077L11.5839 18.6515L11.1495 18.5905L10.7875 18.2858L10.7151 17.9201L11.1495 17.4324L12.0907 16.5791Z" fill="#FFAB1A"/>
<path d="M10.2081 14.141L10.7149 14.2019L11.0769 14.5067L11.1493 14.8115L10.9321 15.1772L10.5701 15.36L9.41177 15.6648H8.76018L8.39819 15.36V14.8115L8.76018 14.5677L10.2081 14.141Z" fill="#FFAB1C"/>
<path d="M19.7647 7.92395H20.2715L20.6335 8.16776L20.7059 8.28966L20.6335 8.83824L19.9095 9.75252L19.6199 9.99633L19.4751 10.0573L18.8235 9.99633V9.87443H18.6787L18.5339 9.63062L18.6063 9.2649L19.1855 8.47252L19.6199 7.9849L19.7647 7.92395Z" fill="#FF9F00"/>
<path d="M19.2579 16.7009L19.6923 16.7619L20.1267 17.0666L20.6335 17.5543L20.9955 17.9809V18.3466L20.8507 18.5905L20.4887 18.7733L19.9819 18.7124L19.5475 18.4076V18.2857H19.4027L18.7511 17.6152L18.6787 17.1885L18.9683 16.8228L19.2579 16.7009Z" fill="#F97517"/>
<path d="M22.5158 10.9104L22.9502 10.9714L23.3121 11.3371L23.3845 11.6418L23.1673 11.9466L22.4434 12.2514L21.647 12.4952H21.0678L20.8506 12.3123L20.7058 12.1294V11.7028L21.0678 11.398L22.5158 10.9104Z" fill="#F97517"/>
<path d="M20.9955 14.3239H21.6471L22.9503 14.6896L23.3847 14.9943V15.421L22.9503 15.7867H22.4435L21.2851 15.4819L20.8507 15.2991L20.6335 14.9943L20.9231 14.3848L20.9955 14.3239Z" fill="#F97517"/>
<path d="M27.9457 22.3695V22.5524L26.5701 24.8686L25.9186 25.9047L25.3394 26.88L25.1946 27.0019L25.267 26.6971L25.8462 25.7828L26.2806 25.0514L26.353 24.5638L26.4977 24.5028V23.9543L26.5701 23.7714L26.7149 23.7105L26.8597 23.4666L27.1493 23.3447L27.5837 22.7962L27.9457 22.3695Z" fill="#FF870F"/>
<path d="M17.3754 13.2267L17.5202 13.4705V13.8972L17.303 14.0191L16.7963 13.9581L16.8687 14.2019L17.303 14.4457L17.2307 14.6895L17.0859 14.6286V14.4457L16.7239 14.2629L16.2895 14.3848H15.4207L15.1311 14.08V13.8972L17.3754 13.8362V13.2267Z" fill="#FF9500"/>
<path d="M15.7104 9.63049L16.6516 9.69145L17.5928 9.93526L18.5339 10.3619L19.4027 11.0934L19.9819 11.9467L20.1267 12.3734V12.9829L19.9095 13.1048L19.9819 12.9219V12.4953L19.7647 11.8857L19.3303 11.2762L18.6787 10.6667L17.9548 10.24L17.0136 9.93526L16.2896 9.81335H15.638L14.8416 9.8743L13.9729 10.1791H13.8281V10.301H13.4661L13.8281 10.0572L14.6968 9.7524L15.7104 9.63049Z" fill="#FF9720"/>
<path d="M15.5656 6.82666H16.0724L16.4344 7.00952L16.5792 7.43618V8.65523L16.4344 8.83809L16.362 7.25333L16.1448 7.00952H15.5656L15.4208 7.13142L15.3484 8.22857V8.77714L15.7104 9.02095L16.0724 9.0819L15.7828 9.2038L15.3484 9.02095L15.1312 8.71618L15.0588 8.16761V7.43618L15.3484 6.94856L15.5656 6.82666Z" fill="#FF911C"/>
<path d="M15.3484 2.68201H16.2896L18.5339 2.92582V2.98677H17.7375L17.086 2.92582H15.2036L13.2489 3.04772L12.1629 3.29153L11.8733 3.23058L13.1765 2.92582L14.6244 2.74296L15.3484 2.68201Z" fill="#F97517"/>
<path d="M19.837 13.1047V13.2876L19.475 13.7752L19.1854 14.08L18.8234 14.3847L18.389 14.9333L17.8822 15.36L17.3031 16.0305L16.1447 17.2495L15.9275 17.1885L16.6515 16.5181L17.5926 15.4819L18.2442 14.7505L19.0406 13.9581L19.837 13.1047Z" fill="#FFA538"/>
<path d="M14.1177 17.859H15.2037L15.1313 18.2247L14.8417 18.4685H14.1901L13.9729 18.3466V17.92L14.1177 17.859Z" fill="#FFD37F"/>
<path d="M12.8146 20.6019L12.887 20.7848L12.3802 21.3334L12.163 21.6381H12.0182L11.8734 21.8819L11.5838 22.3086H11.439L11.2942 22.6134L11.0046 23.04L10.8598 23.2838L10.353 23.2229L10.4978 23.1619L10.6426 22.9181L11.2218 22.3086L11.9458 21.5772L12.525 20.9676L12.8146 20.6019Z" fill="#FFA538"/>
<path d="M10.3528 11.3982L10.7872 11.4591L11.0044 11.5811L10.932 12.1296L10.7872 12.3125L10.2804 12.3734L10.0632 12.3125V12.0687L10.2804 11.8858L10.3528 11.3982Z" fill="#FFBF45"/>
<path d="M15.7828 12.9219H16.2172L16.6516 13.2266V13.4095H15.0588L15.1312 13.1657L15.4932 12.9828L15.7828 12.9219Z" fill="#FFA61D"/>
<path d="M21.5022 27.3676L22.1538 27.7333L23.2398 28.2818V28.1599L23.6742 28.099L23.7466 28.4037H23.6018L23.8914 28.6476L24.1086 28.5866L24.8325 27.4895L24.9049 27.6114L24.2533 28.7695L23.9638 28.8304L21.9366 27.7942L21.5746 27.5504L21.3574 27.4285L21.5022 27.3676Z" fill="#FF9809"/>
<path d="M8.61548 17.859L8.97747 18.1638L9.77385 18.8952L10.7874 19.5657L11.6562 20.0533L12.525 20.419L12.5974 20.5409L12.2354 20.419L11.077 19.9314L10.4254 19.5657V19.4438L10.0634 19.3219L9.33946 18.7733L8.61548 17.9809V17.859Z" fill="#FF9500"/>
<path d="M5.86426 20.2362L6.37105 20.6019L6.87783 21.0895L7.45702 21.5162L8.1086 22.0038L9.04978 22.5524L9.55657 22.7962V22.9181L9.19457 22.7962L8.3258 22.3086L7.38462 21.6991L6.08145 20.6019L5.86426 20.3581V20.2362Z" fill="#FF8912"/>
<path d="M11.1492 27.9163L11.5836 28.1601L11.8732 28.4648L12.4523 28.8915V29.0134L12.7419 29.1353V29.2572L13.0315 29.3791V29.501L13.3211 29.6229V29.7448L13.6107 29.8667V29.9886L13.9003 30.1105V30.2325L14.1899 30.3544V30.4763L13.9003 30.3544L11.1492 28.0382V27.9163Z" fill="#F97517"/>
<path d="M8.90496 10.7886L9.41175 10.8495L10.9321 11.3981L11.0769 11.52V12.0076L10.9321 12.2514L10.7873 12.1905L10.9321 11.9467L11.0045 11.581L10.6425 11.4591L9.55654 11.0324H9.12215L8.97736 11.0933V11.3371L8.54297 11.2762V11.0324L8.90496 10.7886Z" fill="#F97517"/>
<path d="M12.8146 9.08191L13.0318 9.14286L13.1042 9.50858L13.0318 9.81334L12.3078 9.87429L12.0906 9.69143L12.4526 9.50858L12.6698 9.32572L12.8146 9.08191Z" fill="#FFB43C"/>
<path d="M4.70581 23.101L5.0678 23.4057L5.35739 23.7714L5.86418 24.1371L6.00898 24.381L5.86418 24.4419L6.00898 24.7467L6.08138 24.9905L5.79178 24.7467L4.9954 23.5886L4.70581 23.2229V23.101Z" fill="#FEAB53"/>
<path d="M11.5112 7.802H12.018L12.0904 7.92391H11.5836L11.656 8.10676L11.5112 8.28962H11.3664L11.294 8.65534L11.3664 8.89914L11.1492 8.71629L11.0044 8.47248L11.0768 8.10676L11.5112 7.802Z" fill="#F97517"/>
<path d="M21.2126 11.337H21.5746L21.5022 11.4589H21.3574L21.2126 11.8856L20.923 12.0075L20.8506 12.1294L20.7058 11.9466L20.7782 11.5808L21.2126 11.337Z" fill="#FF920A"/>
<path d="M15.2759 14.019H16.2895L16.4342 14.2019L16.2895 14.3848H15.7103L15.3483 14.2019L15.2759 14.019Z" fill="#FF9932"/>
<path d="M15.2036 7.13147L15.276 7.31433V8.65528L15.5656 8.96004L16.0724 9.08195L15.7828 9.20385L15.3484 9.02099L15.1312 8.71623L15.0588 8.16766V7.43623L15.2036 7.13147Z" fill="#FF850D"/>
<path d="M14.4073 17.7371H15.3484V18.1028L15.276 18.3466L15.0589 18.4685L14.8417 18.4075L15.1313 18.1028V17.9199L14.1177 17.859L14.4073 17.7371Z" fill="#FFA538"/>
<path d="M16.5067 13.9581H16.7963L16.8687 14.2019L17.3031 14.4457L17.2307 14.6896L17.0859 14.6286V14.4457L16.7239 14.2629L16.2896 14.3238L16.3619 14.141L16.2896 14.0191L16.5067 13.9581Z" fill="#FEAC54"/>
<path d="M5.5746 24.0153L5.86419 24.1372L6.00898 24.381L5.86419 24.4419L6.00898 24.7467L6.08138 24.9905L5.79179 24.7467L5.5746 24.4419L5.5022 24.0762L5.5746 24.0153Z" fill="#FEB058"/>
<path d="M12.0904 16.5791H12.5972L12.8868 16.8229L12.2352 16.762L11.8008 17.0058L11.5112 17.1886L11.656 16.9448L12.0904 16.5791Z" fill="#FF9500"/>
<path d="M15.276 7.13147H15.3484L15.4208 7.55814L15.276 8.65528H15.2036V7.31433L15.276 7.13147Z" fill="#FFA538"/>
<path d="M15.7827 12.9219H16.2171L16.5067 13.1657L16.2895 13.1047H15.7827L15.3483 13.1657L15.2759 13.2876L15.1311 13.1657L15.4931 12.9828L15.7827 12.9219Z" fill="#FF8912"/>
<path d="M10.353 19.3219L11.439 19.9314L11.2218 19.9924L10.4254 19.5657L10.353 19.3219Z" fill="#FF8306"/>
<path d="M14.1177 18.8344H14.4073V19.2001L14.2625 19.322L14.1177 19.261V18.8344Z" fill="#FF9517"/>
<path d="M10.5701 11.2762L11.0045 11.4591L11.0769 11.5201V12.0077L10.9321 12.2515L10.7873 12.1905L10.9321 11.9467L11.0045 11.581L10.6425 11.4591L10.5701 11.2762Z" fill="#FF8306"/>
<path d="M27.3664 22.9791V23.162L27.0044 23.5277L26.6425 23.5886L26.932 23.2839L27.3664 22.9791Z" fill="#FFA210"/>
</svg>
